<?xml version="1.0" encoding="UTF-8"?>
<svg version="1.1" viewBox="0 0 64 64" xmlns="http://www.w3.org/2000/svg" xmlns:xlink="http://www.w3.org/1999/xlink"><defs><radialGradient id="a" cx="524.79" cy="441.88" r="64" gradientTransform="matrix(-.5 .5 -.5 -.5 515.33 -9.4575)" gradientUnits="userSpaceOnUse"><stop stop-color="#c5f7de" offset="0"/><stop stop-color="#6eddba" offset="1"/></radialGradient><linearGradient id="b" x1="816" x2="816" y1="370.5" y2="466.5" gradientTransform="matrix(.31037 -.054726 .054726 .31037 -213.91 -73.39)" gradientUnits="userSpaceOnUse"><stop stop-color="#1ee9a5" offset="0"/><stop stop-color="#00c870" offset="1"/></linearGradient></defs><rect width="64" height="64" fill="url(#a)" style="paint-order:stroke markers fill"/><g fill="#36434a"><g stroke-linecap="round" stroke-linejoin="round" stroke-width="2"><path d="m29.189 60.047h3.312c2.064 0 3.424-1.248 3.424-3.168v-4.864c0-1.92-1.36-3.168-3.424-3.168h-3.312c-0.112 0-0.192 0.08-0.192 0.192v10.816c0 0.112 0.08 0.192 0.192 0.192zm1.664-1.68v-7.84c0-0.048 0.032-0.08 0.08-0.08h1.584c0.944 0 1.552 0.688 1.552 1.776v4.448c-0.032 1.088-0.624 1.76-1.552 1.76l-1.584 0.016c-0.048 0-0.08-0.032-0.08-0.08z" style="paint-order:stroke fill markers"/><path d="m43.141 60.047h1.536c0.128 0 0.192-0.064 0.16-0.208l-2.912-10.832c-0.032-0.112-0.112-0.16-0.224-0.16h-1.84c-0.112 0-0.192 0.048-0.224 0.16l-2.896 10.832c-0.032 0.144 0.032 0.208 0.16 0.208h1.52c0.112 0 0.192-0.048 0.224-0.16l0.416-1.712c0.016-0.048 0.032-0.064 0.08-0.064h3.296c0.048 0 0.064 0.016 0.08 0.064l0.4 1.712c0.032 0.112 0.112 0.16 0.224 0.16zm-3.68-3.488 1.296-5.184c0.016-0.064 0.08-0.064 0.096 0l1.264 5.184c0.016 0.064-0.032 0.096-0.08 0.096h-2.496c-0.048 0-0.096-0.032-0.08-0.096z" style="paint-order:stroke fill markers"/><path d="m51.781 48.847h-6.88c-0.112 0-0.192 0.08-0.192 0.192v1.232c0 0.112 0.08 0.192 0.192 0.192h2.384c0.048 0 0.08 0.032 0.08 0.08v9.312c0 0.112 0.08 0.192 0.192 0.192h1.472c0.112 0 0.192-0.08 0.192-0.192v-9.312c0-0.048 0.032-0.08 0.08-0.08h2.48c0.112 0 0.192-0.08 0.192-0.192v-1.232c0-0.112-0.08-0.192-0.192-0.192z" style="paint-order:stroke fill markers"/><path d="m58.469 60.047h1.536c0.128 0 0.192-0.064 0.16-0.208l-2.912-10.832c-0.032-0.112-0.112-0.16-0.224-0.16h-1.84c-0.112 0-0.192 0.048-0.224 0.16l-2.896 10.832c-0.032 0.144 0.032 0.208 0.16 0.208h1.52c0.112 0 0.192-0.048 0.224-0.16l0.416-1.712c0.016-0.048 0.032-0.064 0.08-0.064h3.296c0.048 0 0.064 0.016 0.08 0.064l0.4 1.712c0.032 0.112 0.112 0.16 0.224 0.16zm-3.68-3.488 1.296-5.184c0.016-0.064 0.08-0.064 0.096 0l1.264 5.184c0.016 0.064-0.032 0.096-0.08 0.096h-2.496c-0.048 0-0.096-0.032-0.08-0.096z" style="paint-order:stroke fill markers"/></g><path d="m17.256 3.0994c-5.0797 0.89569-8.955 3.2369-11.288 6.9769l-6.207e-4 1.09e-4c-2.3044 3.6989-2.909 8.3578-1.9529 13.78 0.82713 4.6909 2.6093 8.3804 5.4207 10.895 2.0024 1.7912 4.488 2.8222 7.3129 3.1795-0.40066 0.40126-0.78199 0.82995-1.1204 1.3132-0.38066 0.54371-0.27458 1.2894 0.24259 1.7054l0.7516 0.60439c0.54592 0.43932 1.3453 0.34918 1.7797-0.20068 1.0765-1.3636 1.9852-1.9151 2.2135-1.9554 0.06243-0.01101-0.06001-0.06195 0.04221 0.03381 0.04089 0.03831 0.56497 0.74836 1.1453 1.8588l-0.0096-0.01895c1.0178 2.0306 2.2789 3.5838 3.8417 4.5566 1.6352 1.0449 3.687 1.2969 5.9499 0.89786 2.2926-0.40424 4.1594-1.344 5.3688-2.8868 1.2145-1.5493 1.6143-3.5805 1.2924-5.7963-0.09608-0.65962-0.68905-1.1305-1.3533-1.0746l-0.99905 0.08366c-0.69549 0.05841-1.2112 0.67075-1.1505 1.366 0.09723 1.1115 0.0099 1.9017-0.11966 2.2706-0.1296 0.36891-0.09328 0.28521-0.22379 0.30823-0.37334 0.06583-0.38576 0.03254-0.50279-0.07948-0.18546-0.17752-0.7177-0.90968-1.3298-2.04-0.0014-0.0026-0.0025-0.0054-4e-3 -8e-3 -0.71692-1.3012-1.666-2.3527-2.8299-3.0756-0.17724-0.1136-0.37621-0.1916-0.56684-0.2832 2.4696-1.2828 4.4217-3.0197 5.6674-5.2839 1.8351-3.3356 2.2169-7.5864 1.3262-12.638-0.93776-5.3183-2.9894-9.3772-6.2476-11.952l-0.0029-0.00205c-3.2568-2.6265-7.588-3.4298-12.654-2.5366zm2.7087 0.93121 0.03224 0.00555c-0.0063-0.00113-0.01332-2.118e-4 -0.01963-0.00153-0.0044-8.185e-4 -0.0082-0.0033-0.01258-0.00402zm-2.3285 2.5294c0.7835-0.13815 1.4145-0.13798 1.8861-0.047555 0.01072 0.00201 0.02148 0.00386 0.03225 0.00558 0.69222 0.11409 1.4206 0.63089 2.1966 1.9759 0.0022 0.00357 0.0041 0.0072 0.0063 0.010765 0.52073 0.88205 1.5149 4.3483 2.4691 9.7602l0.58317 3.3073c0.85625 4.856 1.062 8.3284 0.75434 10.127-6.72e-4 0.0034-0.0013 0.0069-0.0019 0.01032-0.13337 0.8223-0.42142 1.3588-0.87706 1.7822-0.45563 0.42348-1.1318 0.7546-2.1358 0.93164-1.6247 0.28648-2.6124-0.03756-3.5255-1.0403-7.84e-4 -8.22e-4 -0.0016-2e-3 -0.0024-0.0028-0.32533-0.35539-0.85968-1.2765-1.3958-2.6628-0.48459-1.3486-1.0799-3.8875-1.714-7.4838l-0.56746-3.2182c-0.58824-3.3361-0.94116-5.8676-1.062-7.5438-0.05699-1.1474-0.0184-2.0214 0.07434-2.5595 0.13243-0.60029 0.32874-1.1873 0.59861-1.7663 0.21918-0.47021 0.48197-0.75678 0.84275-0.97364 0.45305-0.25944 1.0606-0.47514 1.8384-0.6123z" color="#000000" style="-inkscape-stroke:none;paint-order:stroke fill markers"/></g><path d="m5.1296 22.924q-1.3791-7.8212 1.7816-12.895 3.1975-5.126 10.438-6.4026 7.2402-1.2766 11.646 2.2783 4.4424 3.5023 5.7979 11.19 2.5769 14.615-9.9109 18.015l0.05516 0.31285q2.5948-0.18104 3.9985 0.72351 1.4484 0.89667 2.3972 2.6187 0.95668 1.7668 1.5665 2.3505 0.60983 0.58371 1.5931 0.41033 1.6983-0.29946 1.3807-3.9301l0.999-0.08399q0.43073 2.9655-1.0365 4.8371-1.4672 1.8716-4.5957 2.4232-3.0838 0.54376-5.058-0.72103-1.9663-1.2201-3.3881-4.0569-0.90411-1.73-1.4009-2.1953t-1.1225-0.35506q-1.2514 0.22066-2.9842 2.4156l-0.75178-0.60476q1.4725-2.1029 3.6809-2.9071l-0.04728-0.26816q-6.1886 0.44606-10.018-2.98-3.8299-3.426-5.0198-10.175zm20.795-2.2843-0.58316-3.3073q-1.4421-8.1788-2.6249-10.182-1.3273-2.3005-3.0834-2.5899-1.0016-0.19205-2.3424 0.044366t-2.261 0.76733q-0.8755 0.52303-1.3436 1.5272t-0.69695 2.0584q-0.18417 1.0463-0.09241 2.8734 0.18892 2.6395 1.0794 7.6898l0.5674 3.2179q0.96143 5.4525 1.7735 7.7056 0.84884 2.2005 1.6479 3.0734 1.7716 1.9457 4.6767 1.4334 3.5307-0.62256 4.0386-3.7535 0.54463-3.1836-0.75566-10.558z" fill="url(#b)" stroke-linecap="round" stroke-linejoin="round" stroke-width="2.5212" style="paint-order:stroke fill markers"/></svg>
